<svg xmlns="http://www.w3.org/2000/svg" viewBox="10660 3112.59 41.695 41.695">
  <defs>
    <style>
      .cls-1 {
        fill: #25b7d3;
      }

      .cls-2 {
        fill: #fff;
      }

      .cls-3 {
        fill: #1d99b1;
      }

      .cls-4 {
        fill: #48a1af;
      }
    </style>
  </defs>
  <g id="Group_200" data-name="Group 200" transform="translate(9968 2312)">
    <path id="Path_141" data-name="Path 141" class="cls-1" d="M0,20.851A20.848,20.848,0,1,1,20.847,41.7,20.847,20.847,0,0,1,0,20.851Z" transform="translate(692 800.587)"/>
    <g id="Group_198" data-name="Group 198" transform="translate(699.87 808.46)">
      <path id="Path_142" data-name="Path 142" class="cls-2" d="M235.878,98.5l-4.169-4.169a2.308,2.308,0,0,0-3.264,0l-6.44,6.44a2.309,2.309,0,0,0,0,3.265l4.169,4.169a2.308,2.308,0,0,0,3.264,0l6.44-6.44A2.308,2.308,0,0,0,235.878,98.5ZM229,105.564a1.353,1.353,0,0,1-1.914,0l-2.444-2.444a1.353,1.353,0,0,1,0-1.914l4.245-4.245a1.353,1.353,0,0,1,1.914,0l2.444,2.444a1.353,1.353,0,0,1,0,1.913Z" transform="translate(-210.599 -93.65)"/>
      <path id="Path_143" data-name="Path 143" class="cls-2" d="M108.2,226.173,104.031,222a2.308,2.308,0,0,0-3.264,0l-6.44,6.44a2.308,2.308,0,0,0,0,3.264l4.169,4.169a2.308,2.308,0,0,0,3.264,0l6.44-6.44A2.308,2.308,0,0,0,108.2,226.173Zm-6.88,7.069a1.353,1.353,0,0,1-1.914,0L96.963,230.8a1.353,1.353,0,0,1,0-1.914l4.245-4.245a1.353,1.353,0,0,1,1.914,0l2.444,2.444a1.353,1.353,0,0,1,0,1.914Z" transform="translate(-93.651 -210.598)"/>
    </g>
    <path id="Subtraction_17" data-name="Subtraction 17" class="cls-3" d="M-3983.423,1190.205h0l-8.386-8.385a2.306,2.306,0,0,0,1.46.52,2.3,2.3,0,0,0,1.633-.676l6.439-6.44a2.294,2.294,0,0,0,.676-1.633,2.3,2.3,0,0,0-.676-1.631l-1.482-1.482,1.025-1.026,1.482,1.482a2.287,2.287,0,0,0,1.632.676,2.3,2.3,0,0,0,1.633-.676l6.439-6.44a2.3,2.3,0,0,0,.141-3.11l8.4,8.4a20.762,20.762,0,0,1-5.962,14.178,20.732,20.732,0,0,1-14.456,6.243h0Z" transform="translate(4696.696 -347.925)"/>
    <path id="Path_144" data-name="Path 144" class="cls-4" d="M193.822,184.136l-.2-.2a1.671,1.671,0,0,0-2.36,0l-7.324,7.324a1.671,1.671,0,0,0,0,2.36l.2.2a1.671,1.671,0,0,0,2.36,0l7.324-7.324A1.671,1.671,0,0,0,193.822,184.136Z" transform="translate(523.97 632.561)"/>
    <path id="Path_145" data-name="Path 145" class="cls-2" d="M191.766,199.09a1.151,1.151,0,0,1-1.628,0l-.2-.2a1.151,1.151,0,0,1,0-1.628l7.324-7.324a1.151,1.151,0,0,1,1.628,0l.2.2a1.151,1.151,0,0,1,0,1.627Z" transform="translate(518.335 626.925)"/>
  </g>
</svg>
