<svg xmlns="http://www.w3.org/2000/svg" viewBox="6321.671 3319.185 39.401 36.372">
  <defs>
    <style>
      .cls-1 {
        fill: #fff;
      }
    </style>
  </defs>
  <g id="conveyor" transform="translate(6321.671 3300.353)">
    <path id="Path_85" data-name="Path 85" class="cls-1" d="M32.921,310.018H6.479a6.479,6.479,0,0,0,0,12.958H32.921a6.479,6.479,0,1,0,0-12.958Zm0,11.316H6.479a4.837,4.837,0,0,1,0-9.675H32.921a4.837,4.837,0,1,1,0,9.675Z" transform="translate(0 -267.772)"/>
    <path id="Path_86" data-name="Path 86" class="cls-1" d="M375.988,351.131a3.174,3.174,0,1,0,3.174,3.174A3.177,3.177,0,0,0,375.988,351.131Zm0,4.705a1.532,1.532,0,1,1,1.532-1.532A1.533,1.533,0,0,1,375.988,355.836Z" transform="translate(-342.836 -305.579)"/>
    <path id="Path_87" data-name="Path 87" class="cls-1" d="M264.464,351.131a3.174,3.174,0,1,0,3.174,3.174A3.177,3.177,0,0,0,264.464,351.131Zm0,4.705A1.532,1.532,0,1,1,266,354.3,1.533,1.533,0,0,1,264.464,355.836Z" transform="translate(-240.28 -305.579)"/>
    <path id="Path_88" data-name="Path 88" class="cls-1" d="M152.94,351.131a3.174,3.174,0,1,0,3.174,3.174A3.177,3.177,0,0,0,152.94,351.131Zm0,4.705a1.532,1.532,0,1,1,1.533-1.532A1.533,1.533,0,0,1,152.94,355.836Z" transform="translate(-137.723 -305.579)"/>
    <path id="Path_89" data-name="Path 89" class="cls-1" d="M41.415,351.131a3.174,3.174,0,1,0,3.174,3.174A3.177,3.177,0,0,0,41.415,351.131Zm0,4.705a1.532,1.532,0,1,1,1.532-1.532A1.534,1.534,0,0,1,41.415,355.836Z" transform="translate(-35.166 -305.579)"/>
    <path id="Path_90" data-name="Path 90" class="cls-1" d="M178.86,83.12v5.852H180.5V83.12l.789.962,1.27-1.04-2.879-3.509L176.8,83.041l1.27,1.04Z" transform="translate(-162.584 -55.819)"/>
    <path id="Path_91" data-name="Path 91" class="cls-1" d="M100.114,83.12v5.852h1.642V83.12l.79.963,1.27-1.042-2.88-3.509-2.879,3.509,1.27,1.04Z" transform="translate(-90.17 -55.819)"/>
    <rect id="Rectangle_112" data-name="Rectangle 112" class="cls-1" width="10.821" height="1.642" transform="translate(8.52 34.162)"/>
    <path id="Path_92" data-name="Path 92" class="cls-1" d="M63.382,18.832H42.329V38.99H63.382ZM61.74,37.348H43.971V20.474H61.74Z" transform="translate(-38.925)"/>
    <path id="Path_93" data-name="Path 93" class="cls-1" d="M328.888,102.271l8.406-7.3-8.406-7.3v4.483h-4.106v5.636h4.106Zm-2.464-6.125V93.793h4.106V91.269l4.26,3.7-4.26,3.7V96.146Z" transform="translate(-298.666 -63.301)"/>
  </g>
</svg>
