<?xml version="1.0" encoding="iso-8859-1"?>
<!-- Generator: Adobe Illustrator 19.0.0, SVG Export Plug-In . SVG Version: 6.00 Build 0)  -->
<svg version="1.1" id="Layer_1" xmlns="http://www.w3.org/2000/svg" xmlns:xlink="http://www.w3.org/1999/xlink" x="0px" y="0px"
	 viewBox="0 0 487.908 487.908" style="enable-background:new 0 0 487.908 487.908;" xml:space="preserve">
<g transform="translate(0 -540.36)">
	<g>
		<g>
			<path d="M477.908,932.364h-40.6v-357.7c0-5.5-4.5-10-10-10s-10,4.5-10,10v245.5h-75.2l-88.9-239.1c-1.5-3.9-5.2-6.5-9.4-6.5
				h-172.7c-5.5,0-10,4.5-10,10v233l-59.7,99.2c-2.8,4.7-1.3,10.9,3.4,13.7c1.6,1,3.4,1.4,5.1,1.4c3.4,0,6.7-1.7,8.6-4.8l58.2-96.7
				h98.9l18.1,53.8c1.4,4.1,5.2,6.8,9.5,6.8h61.1c2.1,0,4.1-0.7,5.8-1.9l68.3-48.9h78.9v102.2c0,5.5,4.5,10,10,10h50.6
				c5.5,0,10-4.5,10-10S483.408,932.364,477.908,932.364z M261.108,870.964h-50.8l-18.1-53.8c-1.4-4.1-5.2-6.8-9.5-6.8h-101.6
				v-215.8h155.8l65,174.9h-40.7l-17.6-44.4l15.1-9c4.7-2.8,6.3-9,3.4-13.7c-2.8-4.7-9-6.3-13.7-3.4l-50.6,30.3
				c-4.7,2.8-6.3,9-3.4,13.7c1.9,3.1,5.2,4.9,8.6,4.9c1.7,0,3.5-0.5,5.1-1.4l18.1-10.8l18.8,47.7c1.5,3.8,5.2,6.3,9.3,6.3h54.9
				l13.8,37.1L261.108,870.964z"/>
			<path d="M192.608,769.364h-53.3l-17.7-74.2c-1.3-5.4-6.7-8.7-12.1-7.4s-8.7,6.7-7.4,12.1l19.6,81.9c1,4.5,5.1,7.7,9.7,7.7h61.1
				c5.6,0,10.1-4.6,10.1-10.1S198.108,769.364,192.608,769.364z"/>
			<path d="M253.708,933.264h-80.7c-5.5,0-10,4.5-10,10s4.5,10,10,10h80.7c5.5,0,10-4.5,10-10S259.208,933.264,253.708,933.264z"/>
			<path d="M90.608,881.564c-33.4,0-60.6,27.3-60.6,60.8c0,34,27.2,61.6,60.6,61.6c16.5,0,31.9-6.4,43.5-18
				c11.5-11.6,17.9-27.1,17.9-43.6C152.008,908.864,124.408,881.564,90.608,881.564z M90.608,984.064c-22.4,0-40.6-18.7-40.6-41.6
				c0-22.5,18.2-40.8,40.6-40.8c22.8,0,41.4,18.3,41.4,40.8C132.008,965.764,113.808,984.064,90.608,984.064z"/>
			<path d="M335.208,881.564c-33.4,0-60.6,27.3-60.6,60.8c0,34,27.2,61.6,60.6,61.6c16.5,0,31.9-6.4,43.5-18
				c11.5-11.6,17.9-27.1,17.9-43.6C396.608,908.864,369.008,881.564,335.208,881.564z M335.208,984.064c-22.4,0-40.6-18.7-40.6-41.6
				c0-22.5,18.2-40.8,40.6-40.8c22.8,0,41.4,18.3,41.4,40.8C376.608,965.764,358.408,984.064,335.208,984.064z"/>
		</g>
	</g>
</g>
<g>
</g>
<g>
</g>
<g>
</g>
<g>
</g>
<g>
</g>
<g>
</g>
<g>
</g>
<g>
</g>
<g>
</g>
<g>
</g>
<g>
</g>
<g>
</g>
<g>
</g>
<g>
</g>
<g>
</g>
</svg>
