<svg xmlns="http://www.w3.org/2000/svg" viewBox="7660.689 2163.022 42.411 38.402">
  <defs>
    <style>
      .cls-1 {
        fill: #fff;
        stroke: #fff;
      }
    </style>
  </defs>
  <g id="package" transform="translate(7669.617 2127.692)">
    <g id="Group_122" data-name="Group 122" transform="translate(-8.369 35.83)">
      <path id="Path_84" data-name="Path 84" class="cls-1" d="M41.351,29.567s0-.009,0-.014,0-.036,0-.053,0-.013,0-.019-.005-.032-.009-.048l0-.019c0-.017-.01-.034-.016-.05l0-.009-1.643-4.206a1.091,1.091,0,0,0-1.022-.7H35.654a.59.59,0,0,0,0,1.181h2.935L39.9,28.979H27.533l-.775-3.348h4.566a.59.59,0,0,0,0-1.181H7.436a1.091,1.091,0,0,0-1.022.7L4.771,29.354l0,.009c-.006.016-.011.033-.016.05l0,.019c0,.016-.007.032-.009.048s0,.013,0,.019,0,.035,0,.053,0,.009,0,.014v8.677a.59.59,0,1,0,1.181,0V30.159H18.428v8.975a.894.894,0,0,0,1.486.669l3.127-2.771,3.127,2.77a.893.893,0,0,0,1.486-.669V30.159H40.17V56.644a.769.769,0,0,1-.768.768H28.575c0-.007,0-.013,0-.02,0-.053,0-.106-.007-.158a2.125,2.125,0,0,0,2.5-2.878c-.021-.049-.044-.1-.068-.144l-.013-.026q-.036-.067-.075-.131L30.9,54.03c-.028-.044-.057-.087-.088-.128l0,0c-.031-.041-.063-.08-.1-.119l-.018-.021q-.05-.056-.1-.108l-.021-.02c-.038-.035-.076-.07-.116-.1l0,0c-.039-.032-.08-.062-.122-.091L30.3,53.42q-.063-.042-.128-.08l-.011-.007a2.126,2.126,0,0,0-.4-3.484q-.093-.049-.191-.089l-9.19-3.747,4.278-1.324a1.94,1.94,0,0,0,1.278-2.42,1.9,1.9,0,0,0-.648-.936,1.988,1.988,0,0,0-1.631-.383l-.008,0c-.033.007-3.312.745-6.737,1.413l-.446.086-.345.066-.1.018-.581.109-.224.042c-4.3.792-5.51.807-5.845.761h0l-.015,0-.01,0H9.339a.459.459,0,0,1-.05-.012l-.1-.039.121-.3a1.168,1.168,0,0,0,0-.9,1.189,1.189,0,0,0-.11-.2,1.167,1.167,0,0,0-.529-.428L5.5,40.27a1.175,1.175,0,0,0-1.532.645L.087,50.426a1.177,1.177,0,0,0,.645,1.532L3.9,53.251a1.175,1.175,0,0,0,1.532-.645l.029-.071.731.3h0a6.486,6.486,0,0,1,1.9,1.2q.152.138.3.285t.277.3q.067.078.131.159a7.672,7.672,0,0,0,3.081,2.3l.823.335H6.68a.769.769,0,0,1-.768-.768V55.15a.59.59,0,0,0-1.181,0v1.494A1.952,1.952,0,0,0,6.68,58.593H15.6l7.606,3.1A2.124,2.124,0,0,0,26.123,59.5a2.193,2.193,0,0,0,1.178-.156,2.105,2.105,0,0,0,.914-.751H39.4a1.952,1.952,0,0,0,1.949-1.949V29.567ZM20.535,25.631h5.011l.775,3.348h-6.56Zm-1.987,3.348H6.186l1.308-3.348h11.83ZM26.473,38.5h0l-2.84-2.516a.894.894,0,0,0-1.185,0L19.609,38.5V30.159h6.864ZM4.344,52.156,1.182,50.867l3.874-9.5,3.161,1.289Zm23.59,3.563-.678-.276h0L20.2,52.564a.591.591,0,0,0-.446,1.094l7.058,2.878a.941.941,0,0,1,.086.04l.023.013c.019.011.039.022.057.034l.025.019c.016.012.033.023.048.036l.027.024c.014.012.028.024.041.037l.026.028c.012.013.024.025.035.039l.024.032c.01.013.021.026.03.04s.015.024.022.035.017.027.025.041.013.026.019.039.014.027.02.042.011.028.016.041.011.028.016.042.008.029.012.043.008.028.012.043.005.029.008.044.006.029.008.044,0,.03,0,.045,0,.03,0,.045,0,.03,0,.045,0,.031,0,.046,0,.029,0,.044,0,.032-.006.047-.006.029-.009.043-.006.032-.01.048-.009.028-.013.042-.01.032-.016.047l-.015.032,0,.008a.918.918,0,0,1-.485.478,1,1,0,0,1-.769.01l-1.25-.51-.018-.006-.017-.008-5.74-2.341a.591.591,0,0,0-.446,1.094l5.74,2.341.019.007.016.008a.944.944,0,1,1-.713,1.748l-7.713-3.145h0l-3.612-1.473a6.487,6.487,0,0,1-2.606-1.944,7.67,7.67,0,0,0-3.081-2.3h0l-.732-.3,1.458-3.577,1.378-3.38.1.041a1.534,1.534,0,0,0,.6.108,15.31,15.31,0,0,0,2.578-.219c.925-.131,2.06-.32,3.385-.563l.1-.018L15.7,43.8l.147-.028.17-.032.183-.035.148-.028.228-.044.118-.023.357-.069c3.413-.664,6.708-1.4,6.856-1.436l.044-.007a.775.775,0,0,1,.86.517.757.757,0,0,1-.5.944l-5.854,1.812a.591.591,0,0,0-.048,1.111l10.718,4.37a.944.944,0,0,1-.351,1.818h-.005c-.029,0-.057,0-.086,0l-.025,0c-.022,0-.044-.005-.066-.009l-.041-.01-.049-.012-.05-.017-.039-.014-7.058-2.878a.591.591,0,0,0-.446,1.094l8.557,3.489a.949.949,0,0,1,.165.087.945.945,0,0,1,.384,1.055q-.013.045-.031.089a.949.949,0,0,1-.041.087.965.965,0,0,1-.219.272l-.016.014a.949.949,0,0,1-.955.144Z" transform="translate(0 -24.45)"/>
    </g>
  </g>
</svg>
