<svg id="Group_440" data-name="Group 440" xmlns="http://www.w3.org/2000/svg" viewBox="-1099.158 -2664.183 1286.158 1248.201">
  <defs>
    <style>
      .cls-1 {
        fill: #57d3bb;
      }

      .cls-2 {
        fill: #fff;
      }

      .cls-3 {
        fill: #3e5959;
      }

      .cls-4 {
        fill: #ff7816;
      }

      .cls-5 {
        fill: #ff4b00;
      }

      .cls-6 {
        fill: #dd3400;
      }

      .cls-7 {
        fill: #ede9e8;
      }

      .cls-8 {
        fill: #384949;
      }

      .cls-9 {
        fill: #dfd7d5;
      }

      .cls-10 {
        fill: #8aa8a7;
      }

      .cls-11 {
        fill: #99b5b5;
      }

      .cls-12 {
        fill: #638280;
      }

      .cls-13 {
        fill: #ffb000;
      }

      .cls-14 {
        fill: #ffc200;
      }

      .cls-15 {
        fill: #144d6d;
      }

      .cls-16 {
        fill: #283944;
      }

      .cls-17 {
        fill: #ffda00;
      }

      .cls-18 {
        fill: #99503d;
      }

      .cls-19 {
        fill: #663325;
      }

      .cls-20 {
        fill: #fdbf00;
      }

      .cls-21 {
        fill: #ff9f00;
      }
    </style>
  </defs>
  <g id="sale" transform="translate(-1099.16 -2430.065) rotate(-13)">
    <path id="Path_354" data-name="Path 354" class="cls-1" d="M1040.783,521.993,904.18,411.768,992,259.391l-185.39-16.2L790.344,64.862,634.227,139.44,526.9.008,426.07,142.66l-162.622-84.3-9.757,184.8L71.554,252.886l68.3,175.079L0,512.268,143.108,619.274,71.554,771.651,250.438,791.1,260.2,972.684,426.07,894.853l110.583,145.9,97.573-145.9,152.865,74.579L800.1,787.848,978.986,784.6,913.937,635.438Z" transform="translate(0 0)"/>
    <g id="Group_438" data-name="Group 438" transform="translate(257.325 349.939)">
      <path id="Path_355" data-name="Path 355" class="cls-2" d="M166.731,391.354c13.107,1.821,32.3,1.529,49.958-4.684,19.059-6.667,26.377-18.084,22.182-30.053-4-11.448-14.994-14.929-39.81-15.091-34.183.033-59.975-9.887-69.31-36.557-10.961-31.321,6.765-64.366,50.055-79.522,20.686-7.253,37.436-8.2,50.055-7.123l2.472,36.72A92.378,92.378,0,0,0,190.9,259.76c-17.954,6.31-23.775,17.531-20.458,27.028C174.5,298.5,186.7,300.025,213.5,300.774c36.557.618,57.7,12.164,66.773,38.021,10.733,30.736-3.805,65.179-54.121,82.807-20.978,7.351-43.55,9.074-55.91,7.025Z" transform="translate(-126.588 -124.849)"/>
      <path id="Path_356" data-name="Path 356" class="cls-2" d="M323.061,353.717l-7.09-12.489-.813.293c-4.976,13.66-16.587,24.166-32.362,29.662-26.963,9.432-49.893-4.553-57.341-25.759-12.067-34.573,13.14-62.057,60.333-78.221l-.683-1.952c-2.472-7.058-9.822-15.774-30.248-8.652-13.628,4.749-26.41,14.408-33.207,22.93l-16.945-24c7.448-8.424,23.417-21.3,47.616-29.792,44.4-15.547,67.684,5.627,78.644,36.948l16.2,46.282c4.456,12.782,9.27,24.849,13.2,31.711ZM296.2,292.571c-21.856,7.351-36.948,18.376-31.321,34.476,3.708,10.6,12.619,13.335,21.889,10.115A23.9,23.9,0,0,0,302.9,314.4a29.7,29.7,0,0,0-1.659-7.383Z" transform="translate(-45.911 -122.208)"/>
      <path id="Path_357" data-name="Path 357" class="cls-2" d="M263.152,186.625l41.339-14.473,67.618,193.2L330.77,379.821Z" transform="translate(14.452 -172.152)"/>
      <path id="Path_358" data-name="Path 358" class="cls-2" d="M364.356,278.769c7.351,16.718,27.093,18.929,46.413,12.164a122.768,122.768,0,0,0,34.8-18.311l15.286,26.15c-11.709,10.213-27.353,18.767-45.339,25.076-45.176,15.774-80.173-1.3-94.711-42.932C309,247.188,316.87,202.564,363.152,186.4c42.965-15.059,71.066,12.717,82.58,45.6a106.261,106.261,0,0,1,4.358,16.848Zm38.769-45.307c-3.48-10.115-13.758-25.434-32.85-18.767-17.4,6.115-18.962,24.361-16.132,35.907Z" transform="translate(68.943 -161.779)"/>
    </g>
  </g>
  <g id="Group_437" data-name="Group 437" transform="translate(192 37)">
    <path id="Path_321" data-name="Path 321" class="cls-3" d="M146.672,300.043l-26.1-15L93.281,180.066H0v-30H116.676l30,119.977Zm0,0" transform="translate(-485 -2201)"/>
    <path id="Path_322" data-name="Path 322" class="cls-4" d="M116.676,270.047l35.992,181.965H417.215l36-181.965Zm0,0" transform="translate(-485 -2201)"/>
    <path id="Path_323" data-name="Path 323" class="cls-5" d="M453.211,270.047l-36,181.965H284.945V270.047Zm0,0" transform="translate(-485 -2201)"/>
    <path id="Path_331" data-name="Path 331" class="cls-5" d="M209.957,330.035h30v61.988h-30Zm0,0" transform="translate(-485 -2201)"/>
    <path id="Path_332" data-name="Path 332" class="cls-5" d="M269.945,330.035h30v61.988h-30Zm0,0" transform="translate(-485 -2201)"/>
    <path id="Path_333" data-name="Path 333" class="cls-6" d="M329.934,330.035h30v61.988h-30Zm0,0" transform="translate(-485 -2201)"/>
    <path id="Path_334" data-name="Path 334" class="cls-3" d="M224.957,512a44.99,44.99,0,1,1,44.988-44.992A45.043,45.043,0,0,1,224.957,512Zm0,0" transform="translate(-485 -2201)"/>
    <path id="Path_335" data-name="Path 335" class="cls-7" d="M224.957,452.012a15,15,0,1,0,15,15A15.008,15.008,0,0,0,224.957,452.012Zm0,0" transform="translate(-485 -2201)"/>
    <path id="Path_336" data-name="Path 336" class="cls-6" d="M284.945,330.035h15v61.988h-15Zm0,0" transform="translate(-485 -2201)"/>
    <path id="Path_337" data-name="Path 337" class="cls-8" d="M344.934,512a44.99,44.99,0,1,1,44.988-44.992A45.041,45.041,0,0,1,344.934,512Zm0,0" transform="translate(-485 -2201)"/>
    <path id="Path_338" data-name="Path 338" class="cls-9" d="M344.934,452.012a15,15,0,1,0,15,15A15.008,15.008,0,0,0,344.934,452.012Zm0,0" transform="translate(-485 -2201)"/>
    <path id="Path_352" data-name="Path 352" class="cls-4" d="M195,0C87.6,0,0,87.6,0,195A193.239,193.239,0,0,0,39,312L195,512,351,312a193.231,193.231,0,0,0,39-117C390,87.6,302.4,0,195,0Zm0,0" transform="translate(-395 -2488)"/>
    <path id="Path_353" data-name="Path 353" class="cls-5" d="M390,195a193.239,193.239,0,0,1-39,117L195,512V0C302.4,0,390,87.6,390,195Zm0,0" transform="translate(-395 -2488)"/>
    <g id="discount" transform="translate(-304.789 -2395.136)">
      <path id="Path_339" data-name="Path 339" class="cls-10" d="M307.242,13.61c-18.869,0-51.805,19.556-81.31,49.4-29.505,29.505-49.4,62.441-49.4,81.31a2.609,2.609,0,0,0,2.058,2.745,3.276,3.276,0,0,0,3.431-.686L309.3,18.756c1.029-1.029,1.029-2.058.686-3.431A2.716,2.716,0,0,0,307.242,13.61Z" transform="translate(-100.824 -5.026)"/>
      <path id="Path_340" data-name="Path 340" class="cls-11" d="M225.932,89.629c-29.505,29.505-49.4,62.441-49.4,81.31a2.609,2.609,0,0,0,2.058,2.745,3.276,3.276,0,0,0,3.431-.686l1.372-1.372L260.24,60.81A254.886,254.886,0,0,0,225.932,89.629Z" transform="translate(-100.824 -31.984)"/>
      <path id="Path_341" data-name="Path 341" class="cls-12" d="M299.527,91.014l27.79-27.447c-2.4-.343-3.431-.686-6.862-1.029V44.355c0-1.029-1.029-1.715-1.372-2.745-8.234,4.8-15.782,10.636-26.074,17.5v5.146a45.682,45.682,0,0,0-9.606,3.431,120.569,120.569,0,0,0-11.665,11.322q-6.176,6.175-11.322,12.351a43.926,43.926,0,0,0-3.088,16.468,41.115,41.115,0,0,0,5.146,20.242l27.1-27.1A13.818,13.818,0,0,1,299.527,91.014Z" transform="translate(-146.973 -21.018)"/>
      <path id="Path_342" data-name="Path 342" class="cls-13" d="M313.085,91.267c-20.585-8.577-26.417-13.723-26.417-22.3,0-7.548,5.146-15.439,20.242-15.439a51.817,51.817,0,0,1,27.79,7.548,5.13,5.13,0,0,0,4.46.343,7.51,7.51,0,0,0,3.431-3.088l6.176-15.782c1.029-2.4.343-5.489-2.059-6.519a71.2,71.2,0,0,0-28.819-9.263V8.584c0-3.088-3.088-3.774-6.175-3.774h-15.1c-2.745,0-6.175.686-6.175,3.774v19.9c-20.585,5.489-36.024,21.957-36.024,43.228,0,26.417,20.928,38.082,43.571,47,16.811,6.862,24.016,13.723,24.016,23.673,0,10.979-9.263,18.183-23.33,18.183a56.979,56.979,0,0,1-31.564-9.606,5.838,5.838,0,0,0-4.8-.686,5.664,5.664,0,0,0-3.431,3.431l-5.832,16.125a5.542,5.542,0,0,0,2.4,6.175c8.234,5.832,21.271,10.292,34.994,11.322v19.213c0,3.088,1.715,3.774,4.46,3.774H310c3.088,0,4.117-.686,4.117-3.774V185.957c24.016-5.489,38.768-23.33,38.768-45.63C353.226,117.684,341.561,102.931,313.085,91.267Z" transform="translate(-144.406 0)"/>
      <path id="Path_343" data-name="Path 343" class="cls-14" d="M314.458,278.621V258.036c20.585-4.46,31.907-16.468,36.71-32.25L256.477,130.41a41.272,41.272,0,0,0-1.715,13.037c0,26.417,20.928,38.082,43.228,47,16.811,6.862,24.016,13.723,24.016,23.673,0,10.979-9.263,18.183-23.33,18.183a56.979,56.979,0,0,1-31.563-9.606,5.838,5.838,0,0,0-4.8-.686,5.664,5.664,0,0,0-3.431,3.431l-5.832,16.125a5.542,5.542,0,0,0,2.4,6.175c8.234,5.832,21.271,10.292,34.994,11.322v19.213c0,3.088,1.715,3.774,4.46,3.774H310C313.428,282.4,314.458,281.709,314.458,278.621Z" transform="translate(-144.406 -71.736)"/>
      <path id="Path_344" data-name="Path 344" class="cls-15" d="M74.332,326.28a54.593,54.593,0,0,1-8.234,6.862C43.8,349.266,17.38,349.266,5.372,332.8c-9.949-13.723-5.832-34.651,10.292-50.776A54.588,54.588,0,0,1,23.9,275.16c22.3-16.125,48.718-16.125,60.725.343C94.917,288.884,90.8,309.812,74.332,326.28ZM31.447,297.461c-8.92,8.92-11.322,18.526-8.234,22.643,3.774,5.489,17.84,4.46,30.191-4.46a36.721,36.721,0,0,0,5.489-4.8c8.92-8.92,11.322-18.526,8.234-22.643-3.774-5.489-17.84-4.46-30.191,4.46A36.723,36.723,0,0,0,31.447,297.461Z" transform="translate(0 -147.527)"/>
      <path id="Path_345" data-name="Path 345" class="cls-16" d="M54.533,262.932h0c-1.372,0-2.4.343-3.431.343h-.343a54.837,54.837,0,0,0-7.2,1.715c-.343,0-.343,0-.686.343-1.029.343-1.715.686-2.745,1.029-.343,0-.686.343-1.029.343-.686.343-1.715.686-2.4,1.029-.343.343-.686.343-1.029.686-.686.343-1.715.686-2.4,1.029-.343.343-.686.343-1.372.686s-1.715,1.029-2.4,1.372c-.343.686-.686.686-1.029,1.029a20.827,20.827,0,0,0-3.431,2.4c-2.745,2.058-5.489,4.46-8.234,6.862l-2.745,2.745-.686.686a9.1,9.1,0,0,1-1.715,2.058c0,.343-.343.343-.343.686-.343.686-1.029,1.372-1.715,2.4l-.343.343c-.686,1.029-1.029,1.715-1.715,2.745v.343a8.6,8.6,0,0,0-1.372,2.4h.686a5.1,5.1,0,0,0-.686,3.088h0c-3.431,1.029-1.715,3.774-2.058,3.774H3.757c-.343,0-1.029,2.058-1.029,3.088v.343h0a33.54,33.54,0,0,0,.686,20.928c13.38,5.832,32.25,2.745,48.718-9.263a77.29,77.29,0,0,0,8.234-7.2c14.066-14.066,19.213-31.907,13.723-45.287A41.191,41.191,0,0,0,54.533,262.932Zm13.38,25.045C71,292.094,68.6,301.7,59.679,310.62a36.719,36.719,0,0,1-5.489,4.8C41.5,324.687,27.773,325.373,24,319.884a8.269,8.269,0,0,1-1.372-5.146,3.093,3.093,0,0,1,.343-1.715v-.686a2.593,2.593,0,0,0,.343-1.372c0-.343,0-.343.343-.686,0-.343.343-.686.343-1.372a1.2,1.2,0,0,1,.343-.686c1.372-3.431,4.117-7.2,7.548-10.979a36.725,36.725,0,0,1,5.489-4.8,40.844,40.844,0,0,1,14.753-6.862c.343,0,1.029-.343,1.372-.343.686,0,1.715-.343,2.4-.343C61.738,284.2,66.2,285.232,67.913,287.977Z" transform="translate(-0.786 -147.307)"/>
      <path id="Path_346" data-name="Path 346" class="cls-10" d="M307.242,298c-18.869,0-51.805-19.556-81.31-49.4-29.505-29.5-49.4-62.441-49.4-81.31a2.609,2.609,0,0,1,2.058-2.745,3.276,3.276,0,0,1,3.431.686L309.644,292.849c1.029,1.029,1.029,2.059.686,3.431A3.6,3.6,0,0,1,307.242,298Z" transform="translate(-100.824 -91.11)"/>
      <path id="Path_347" data-name="Path 347" class="cls-11" d="M225.932,249.392c-29.505-29.505-49.4-62.441-49.4-81.31a2.609,2.609,0,0,1,2.058-2.745,3.276,3.276,0,0,1,3.431.686l1.372,1.372,76.85,110.815A254.882,254.882,0,0,1,225.932,249.392Z" transform="translate(-100.824 -91.567)"/>
      <path id="Path_348" data-name="Path 348" class="cls-15" d="M85.222,105.768c-12.008,16.125-38.425,16.468-60.725.343-2.745-2.058-5.489-4.46-8.234-6.862C.138,83.125-4.322,62.2,5.971,48.473,17.978,32.349,44.4,32.005,66.7,48.13c2.745,2.058,5.489,4.46,8.234,6.862C91.055,71.117,95.172,92.045,85.222,105.768Zm-48.031-17.5c12.694,9.263,26.417,9.949,30.191,4.46,3.088-4.117.686-13.723-8.234-22.643a36.723,36.723,0,0,0-5.489-4.8c-12.694-9.263-26.417-9.949-30.191-4.46-3.088,4.117-.686,13.723,8.234,22.643A36.722,36.722,0,0,0,37.191,88.271Z" transform="translate(-0.255 -17.932)"/>
      <path id="Path_349" data-name="Path 349" class="cls-16" d="M73.592,134.412c5.489-13.38.686-31.22-13.723-45.287a54.591,54.591,0,0,0-8.234-6.862C35.51,70.256,16.64,67.168,3.26,73,.515,79.519.515,86.724,2.574,94.272h0v-.343c0,1.372.343,3.088.686,3.088h.686c.343,0-1.372,2.745,2.058,3.774H6a5.1,5.1,0,0,0,.686,3.088H6.348a10.272,10.272,0,0,0,1.372,2.745v.343c.686,1.029,1.029,1.715,1.715,2.745a.336.336,0,0,0,.343.343c.686.686,1.029,1.715,1.715,2.4,0,.343.343.343.343.686l1.715,1.715.686.686a20.7,20.7,0,0,0,2.745,2.745,54.592,54.592,0,0,0,8.234,6.862c1.029.686,2.4,1.715,3.431,2.4,0,.343.343.343.686.686.686.343,1.715,1.029,2.4,1.372.343.343.686.343,1.372.686s1.715.686,2.4,1.029c.343.343.686.343,1.029.686.686.343,1.715.686,2.4,1.029.343,0,.686.343,1.029.343,1.029.343,1.715.686,2.745,1.029.343,0,.343,0,.686.343a54.839,54.839,0,0,0,7.2,1.715h.343c1.029,0,2.058.343,3.088.343h.343A35.585,35.585,0,0,0,73.592,134.412Zm-17.5-18.869c-.686,0-1.715-.343-2.4-.343-.343,0-1.029-.343-1.372-.343-4.8-1.029-9.606-3.431-14.753-6.862a36.722,36.722,0,0,1-5.489-4.8,33.21,33.21,0,0,1-7.548-10.979,1.2,1.2,0,0,0-.343-.686,2.063,2.063,0,0,1-.343-1.372c0-.343,0-.343-.343-.686,0-.343-.343-1.029-.343-1.372V87.41a14.86,14.86,0,0,0-.343-1.715c0-2.058.343-4.117,1.372-5.146,3.774-5.489,17.84-4.46,30.191,4.46a36.723,36.723,0,0,1,5.489,4.8c8.92,8.92,11.322,18.526,8.234,22.643C66.044,114.857,61.584,115.886,56.095,115.543Z" transform="translate(-0.632 -37.314)"/>
      <path id="Path_350" data-name="Path 350" class="cls-12" d="M225,239.444c0,4.46-3.774,10.636-8.234,10.636s-8.234-6.175-8.234-10.636a8.234,8.234,0,0,1,16.468,0Z" transform="translate(-119.101 -129.308)"/>
      <circle id="Ellipse_37" data-name="Ellipse 37" class="cls-14" cx="8.234" cy="8.234" r="8.234" transform="translate(89.427 101.902)"/>
      <path id="Path_351" data-name="Path 351" class="cls-17" d="M214.128,233.726a8.248,8.248,0,1,1,11.665,11.665" transform="translate(-122.299 -129.422)"/>
    </g>
  </g>
  <g id="Group_439" data-name="Group 439" transform="matrix(0.978, -0.208, 0.208, 0.978, 812.756, -260.082)">
    <path id="Path_362" data-name="Path 362" class="cls-18" d="M288.828,207.457,112.31,384.524,72.9,345.112,249.416,168.6l19.428,19.42Zm0,0" transform="translate(-1413.814 -2488.829)"/>
    <path id="Path_363" data-name="Path 363" class="cls-19" d="M279.9,198.532,103.379,375.6,83.4,355.615,259.913,179.1Zm0,0" transform="translate(-1404.884 -2479.905)"/>
    <path id="Path_364" data-name="Path 364" class="cls-20" d="M215.008,269.042l-78.563-78.122L254.276,73.082l78.621,78.18,78.57,78.57L293.629,347.67Zm0,0" transform="translate(-1359.784 -2570.044)"/>
    <path id="Path_365" data-name="Path 365" class="cls-21" d="M257.527,311.767,375.365,193.93l-78.621-78.621L178.906,233.146Zm0,0" transform="translate(-1323.682 -2534.141)"/>
    <path id="Path_366" data-name="Path 366" class="cls-18" d="M311.643,91.043,272.289,51.9,115.2,208.988l39.361,39.137Zm0,0" transform="translate(-1377.848 -2588.055)"/>
    <path id="Path_367" data-name="Path 367" class="cls-19" d="M200.184,293.673,357.274,136.59l39.245,39.245L239.436,332.925Zm0,0" transform="translate(-1305.591 -2516.047)"/>
  </g>
</svg>
