<svg xmlns="http://www.w3.org/2000/svg" viewBox="7577.878 4473.5 35.75 40.528">
  <defs>
    <style>
      .cls-1 {
        fill: #fff;
        stroke: #fff;
      }
    </style>
  </defs>
  <g id="share-outlined-button" transform="translate(7536.313 4474)">
    <g id="Group_87" data-name="Group 87" transform="translate(42.066)">
      <path id="Path_65" data-name="Path 65" class="cls-1" d="M69.595,39.528a7.22,7.22,0,0,1-7.171-8.087l-9.151-5.652a7.158,7.158,0,0,1-3.984,1.2,7.223,7.223,0,1,1,0-14.445,7.157,7.157,0,0,1,3.984,1.2l9.152-5.651a7.22,7.22,0,1,1,3.186,5.161L56.46,18.9a7.26,7.26,0,0,1,0,1.728l9.151,5.652a7.154,7.154,0,0,1,3.984-1.2,7.223,7.223,0,0,1,0,14.446ZM53.248,24.353a.654.654,0,0,1,.343.1l9.886,6.106a.652.652,0,0,1,.3.673,5.988,5.988,0,0,0-.1,1.076A5.916,5.916,0,1,0,69.6,26.388a5.862,5.862,0,0,0-3.564,1.195.653.653,0,0,1-.737.035l-9.886-6.106a.653.653,0,0,1-.3-.672,6.028,6.028,0,0,0,.1-1.077,6.11,6.11,0,0,0-.1-1.077.653.653,0,0,1,.3-.671l9.886-6.106a.654.654,0,0,1,.737.035,5.864,5.864,0,0,0,3.564,1.2,5.916,5.916,0,1,0-5.918-5.916,6.045,6.045,0,0,0,.1,1.076.652.652,0,0,1-.3.673l-9.886,6.106a.655.655,0,0,1-.737-.035,5.86,5.86,0,0,0-3.564-1.2,5.916,5.916,0,1,0,3.566,10.638A.654.654,0,0,1,53.248,24.353Z" transform="translate(-42.066)"/>
    </g>
  </g>
</svg>
