<svg xmlns="http://www.w3.org/2000/svg" viewBox="8111.914 1309.472 42.52 33.528">
  <defs>
    <style>
      .cls-1 {
        fill: #fff;
      }
    </style>
  </defs>
  <g id="shopping-cart-settings" transform="translate(8111.914 1309.472)">
    <g id="Group_35" data-name="Group 35" transform="translate(0 0)">
      <path id="Path_14" data-name="Path 14" class="cls-1" d="M1.316,6.617a5.238,5.238,0,0,1,3.9-1.77H40.706a1.816,1.816,0,0,1,0,3.632H37.464L35.292,26.592a5.239,5.239,0,0,1-4.512,4.567,5.291,5.291,0,1,1-9.872.045H16.284a5.292,5.292,0,1,1-9.869-.049,5.241,5.241,0,0,1-4.473-4.562L.037,10.717A5.256,5.256,0,0,1,1.316,6.617Zm24.536,28.13a1.663,1.663,0,1,0-1.662-1.663A1.664,1.664,0,0,0,25.852,34.747Zm-14.513,0a1.663,1.663,0,1,0-1.664-1.663A1.664,1.664,0,0,0,11.34,34.747ZM3.64,10.284l1.9,15.874a1.6,1.6,0,0,0,1.58,1.412H30.107a1.613,1.613,0,0,0,1.582-1.424L33.806,8.479H5.221a1.611,1.611,0,0,0-1.582,1.8Z" transform="translate(0 -4.847)"/>
      <path id="Path_15" data-name="Path 15" class="cls-1" d="M18.026,17.238h1.029a5.769,5.769,0,0,1,.9-2.161l-.742-.763a.861.861,0,0,1,0-1.21l.638-.64a.844.844,0,0,1,1.194,0l.8.758a5.8,5.8,0,0,1,2.137-.855V11.275a.714.714,0,0,1,.766-.762h.9a.814.814,0,0,1,.883.762v1.089a6.735,6.735,0,0,1,2.078.854l.751-.759a.837.837,0,0,1,1.188,0l.635.637a.842.842,0,0,1,0,1.194l-.741.787a5.727,5.727,0,0,1,.893,2.161H32.36a.686.686,0,0,1,.737.755v.9a.675.675,0,0,1-.737.74H31.329a5.75,5.75,0,0,1-.893,2.169l.741.768a.868.868,0,0,1,.248.609.855.855,0,0,1-.248.6l-.637.64a.847.847,0,0,1-1.195,0l-.74-.759a6.705,6.705,0,0,1-2.078.855v1.089a.8.8,0,0,1-.883.748h-.9a.7.7,0,0,1-.766-.748V24.52a5.764,5.764,0,0,1-2.137-.853l-.779.759a.856.856,0,0,1-1.2,0l-.643-.638a.842.842,0,0,1,0-1.195l.74-.793a5.82,5.82,0,0,1-.9-2.169H18.026a.7.7,0,0,1-.774-.74v-.9A.713.713,0,0,1,18.026,17.238Zm7.167,3.894a2.688,2.688,0,1,0-2.715-2.688A2.7,2.7,0,0,0,25.193,21.132Z" transform="translate(-6.579 -5.257)"/>
    </g>
  </g>
</svg>
