<svg xmlns="http://www.w3.org/2000/svg" viewBox="5471.909 -288.056 40.372 41.156">
  <defs>
    <style>
      .cls-1 {
        fill: #fff;
        stroke: #fff;
      }
    </style>
  </defs>
  <path id="shopping-cart" class="cls-1" d="M43.091,7.159a.754.754,0,0,0-.564-.254H10.809l-.377-3.131A4.29,4.29,0,0,0,6.176,0H4.664a.754.754,0,0,0,0,1.507H6.176a2.781,2.781,0,0,1,2.76,2.447L12,29.443a4.464,4.464,0,0,0,4.429,3.928h2.937l-.321.608a3.142,3.142,0,1,0,1.332.705l.693-1.313H36.623l-.321.608a3.142,3.142,0,1,0,1.332.705l.693-1.313h.627a.754.754,0,1,0,0-1.507H16.432a2.955,2.955,0,0,1-2.932-2.6L13.082,25.8H40.435a.754.754,0,0,0,.748-.664L43.275,7.75a.754.754,0,0,0-.184-.59ZM19.921,37.021a1.628,1.628,0,1,1-1.628-1.628H18.3l-.673,1.275a.754.754,0,1,0,1.333.7l.673-1.275A1.619,1.619,0,0,1,19.921,37.021Zm17.255,0a1.628,1.628,0,1,1-1.628-1.628h.007l-.673,1.275a.754.754,0,1,0,1.333.7l.673-1.275a1.619,1.619,0,0,1,.288.923ZM23.324,8.413h6.019L28.9,24.29H23.771ZM22.263,24.29H17.906L16.67,8.413h5.147ZM30.851,8.413H36L34.761,24.29H30.4Zm-19.861,0h4.167L16.394,24.29H12.9ZM39.767,24.29H36.273L37.51,8.413h4.167Z" transform="translate(5468.499 -287.556)"/>
</svg>
