<svg xmlns="http://www.w3.org/2000/svg" width="43.637" height="38.1" viewBox="0 0 43.637 38.1">
  <g id="shop" transform="translate(0 -31.05)">
    <g id="组_259" data-name="组 259" transform="translate(0 31.05)">
      <path id="路径_189" data-name="路径 189" d="M257.072,263.75h-5.929a2.945,2.945,0,0,0-2.942,2.942v4.547a2.945,2.945,0,0,0,2.942,2.942h5.929a2.945,2.945,0,0,0,2.942-2.942v-4.547A2.945,2.945,0,0,0,257.072,263.75Zm.8,7.49a.8.8,0,0,1-.8.8h-5.929a.8.8,0,0,1-.8-.8v-4.547a.8.8,0,0,1,.8-.8h5.929a.8.8,0,0,1,.8.8Z" transform="translate(-226.069 -243.001)" fill="#fff"/>
      <path id="路径_190" data-name="路径 190" d="M43.637,43.533a.993.993,0,0,0-.143-.526L37,31.594a1.076,1.076,0,0,0-.927-.544H7.552a1.057,1.057,0,0,0-.927.544L.143,43.007A1.082,1.082,0,0,0,0,43.533a6.259,6.259,0,0,0,3.745,5.724V68.08a1.073,1.073,0,0,0,1.07,1.07h34a1.073,1.073,0,0,0,1.07-1.07V49.391a.471.471,0,0,0-.009-.116A6.277,6.277,0,0,0,43.637,43.533ZM8.176,33.2H35.452l5.073,8.925H3.112Zm22.88,11.056a4.112,4.112,0,0,1-8.1,0Zm-10.37,0a4.118,4.118,0,0,1-8.105,0Zm-18.475,0h8.105a4.118,4.118,0,0,1-8.105,0ZM17.976,67.01H11.823V55.463a1.524,1.524,0,0,1,1.525-1.525H16.46a1.524,1.524,0,0,1,1.525,1.525V67.01Zm19.768,0H20.116V55.463A3.67,3.67,0,0,0,16.451,51.8H13.339a3.67,3.67,0,0,0-3.665,3.665V67.019H5.885V49.784c.125.009.25.009.374.009a6.251,6.251,0,0,0,5.189-2.764,6.253,6.253,0,0,0,10.379,0,6.237,6.237,0,0,0,10.361,0,6.251,6.251,0,0,0,5.189,2.764c.125,0,.241-.009.366-.009V67.01Zm-.366-19.358a4.11,4.11,0,0,1-4.048-3.388h8.105A4.135,4.135,0,0,1,37.378,47.653Z" transform="translate(0 -31.05)" fill="#fff"/>
    </g>
  </g>
</svg>
