<svg xmlns="http://www.w3.org/2000/svg" viewBox="4897.55 -287.986 47.418 39.514">
  <defs>
    <style>
      .cls-1 {
        fill: red;
      }
    </style>
  </defs>
  <g id="warehouse" transform="translate(4897.55 -330.66)">
    <g id="Group_60" data-name="Group 60" transform="translate(0 42.674)">
      <g id="Group_59" data-name="Group 59" transform="translate(0 0)">
        <path id="Path_46" data-name="Path 46" class="cls-1" d="M46.887,54.64,24.166,42.785a.994.994,0,0,0-.915,0L.531,54.64A.988.988,0,0,0,.989,56.5h.988V81.2a.987.987,0,0,0,.988.988H8.892a.987.987,0,0,0,.988-.988V58.479h27.66V81.2a.987.987,0,0,0,.988.988h5.927a.987.987,0,0,0,.988-.988V56.5h.988a.988.988,0,0,0,.457-1.864Zm-3.421.876v24.7H39.515V57.491a.987.987,0,0,0-.988-.988H8.891a.987.987,0,0,0-.988.988V80.212H3.952v-24.7a.988.988,0,0,0-.08-.39l19.837-10.35,19.837,10.35A.988.988,0,0,0,43.466,55.516Z" transform="translate(0 -42.674)"/>
        <path id="Path_47" data-name="Path 47" class="cls-1" d="M150.725,320H138.87a.987.987,0,0,0-.988.988v.988h-8.891a.987.987,0,0,0-.988.988v9.879a.987.987,0,0,0,.988.988h21.733a.987.987,0,0,0,.988-.988V320.99A.987.987,0,0,0,150.725,320Zm-12.842,11.854h-7.9v-7.9h2.964v1.976a.988.988,0,1,0,1.976,0v-1.976h2.964v7.9Zm11.854,0h-9.879v-9.879h3.951v2.964a.988.988,0,0,0,1.976,0v-2.964h3.951v9.879Z" transform="translate(-116.149 -294.318)"/>
      </g>
    </g>
  </g>
</svg>
