<?xml version="1.0" encoding="iso-8859-1"?>
<!-- Generator: Adobe Illustrator 19.0.0, SVG Export Plug-In . SVG Version: 6.00 Build 0)  -->
<svg version="1.1" id="Layer_1" xmlns="http://www.w3.org/2000/svg" xmlns:xlink="http://www.w3.org/1999/xlink" x="0px" y="0px"
	 viewBox="0 0 512.009 512.009" style="enable-background:new 0 0 512.009 512.009;" xml:space="preserve">
<g>
	<g>
		<g>
			<path d="M506.275,171.877l-245.333-128c-3.104-1.604-6.771-1.604-9.875,0l-245.333,128c-4.354,2.271-6.594,7.229-5.427,12
				c1.177,4.771,5.448,8.125,10.365,8.125h10.667v266.667c0,5.896,4.771,10.667,10.667,10.667h64
				c5.896,0,10.667-4.771,10.667-10.667V213.335h298.667v245.333c0,5.896,4.771,10.667,10.667,10.667h64
				c5.896,0,10.667-4.771,10.667-10.667V192.002h10.667c4.917,0,9.188-3.354,10.365-8.125
				C512.869,179.106,510.629,174.148,506.275,171.877z M469.338,181.335v266.667h-42.667V202.669
				c0-5.896-4.771-10.667-10.667-10.667h-320c-5.896,0-10.667,4.771-10.667,10.667v245.333H42.671V181.335
				c0-1.5-0.313-2.917-0.865-4.208l214.198-111.76l214.198,111.76C469.65,178.419,469.338,179.835,469.338,181.335z"/>
			<path d="M373.338,320.002h-128c-5.896,0-10.667,4.771-10.667,10.667v10.667h-96c-5.896,0-10.667,4.771-10.667,10.667v106.667
				c0,5.896,4.771,10.667,10.667,10.667h234.667c5.896,0,10.667-4.771,10.667-10.667v-128
				C384.004,324.773,379.234,320.002,373.338,320.002z M234.671,448.002h-85.333v-85.333h32v21.333
				c0,5.896,4.771,10.667,10.667,10.667s10.667-4.771,10.667-10.667v-21.333h32V448.002z M362.671,448.002H256.004v-96v-10.667
				h42.667v32c0,5.896,4.771,10.667,10.667,10.667c5.896,0,10.667-4.771,10.667-10.667v-32h42.667V448.002z"/>
		</g>
	</g>
</g>
<g>
</g>
<g>
</g>
<g>
</g>
<g>
</g>
<g>
</g>
<g>
</g>
<g>
</g>
<g>
</g>
<g>
</g>
<g>
</g>
<g>
</g>
<g>
</g>
<g>
</g>
<g>
</g>
<g>
</g>
</svg>
