<svg xmlns="http://www.w3.org/2000/svg" viewBox="9569.064 2163.186 43.826 36.592">
  <defs>
    <style>
      .cls-1, .cls-2 {
        fill: #fff;
        stroke-width: 0.5px;
      }

      .cls-1 {
        stroke: #fdfeff;
      }

      .cls-2 {
        stroke: #fff;
      }
    </style>
  </defs>
  <g id="warehouse" transform="translate(9569.326 2120.77)">
    <g id="Group_60" data-name="Group 60" transform="translate(0 42.674)">
      <g id="Group_59" data-name="Group 59" transform="translate(0 0)">
        <path id="Path_46" data-name="Path 46" class="cls-1" d="M42.818,53.6,22.069,42.776a.908.908,0,0,0-.835,0L.485,53.6A.9.9,0,0,0,.9,55.3h.9V77.856a.9.9,0,0,0,.9.9H8.12a.9.9,0,0,0,.9-.9V57.107H34.281V77.856a.9.9,0,0,0,.9.9H40.6a.9.9,0,0,0,.9-.9V55.3h.9a.9.9,0,0,0,.417-1.7Zm-3.124.8V76.954H36.085V56.205a.9.9,0,0,0-.9-.9H8.12a.9.9,0,0,0-.9.9V76.954H3.609V54.4a.9.9,0,0,0-.073-.356l18.115-9.452,18.115,9.452A.9.9,0,0,0,39.694,54.4Z" transform="translate(0 -42.674)"/>
        <path id="Path_47" data-name="Path 47" class="cls-2" d="M148.753,320H137.927a.9.9,0,0,0-.9.9v.9h-8.119a.9.9,0,0,0-.9.9v9.021a.9.9,0,0,0,.9.9h19.846a.9.9,0,0,0,.9-.9V320.9A.9.9,0,0,0,148.753,320Zm-11.727,10.825h-7.217V323.61h2.706v1.8a.9.9,0,1,0,1.8,0v-1.8h2.706v7.217Zm10.825,0h-9.021v-9.021h3.608v2.706a.9.9,0,1,0,1.8,0v-2.706h3.608v9.021Z" transform="translate(-117.178 -296.548)"/>
      </g>
    </g>
  </g>
</svg>
